{
  "accessors": [
    {
      "bufferView": 2,
      "componentType": 5126,
      "count": 350,
      "max": [
        0.060669004917144775,
        0.0518888384103775,
        0.09556126594543457
      ],
      "min": [
        -0.15561914443969727,
        -0.11121238768100739,
        -0.003915329929441214
      ],
      "type": "VEC3"
    },
    {
      "bufferView": 2,
      "byteOffset": 4200,
      "componentType": 5126,
      "count": 350,
      "max": [
        0.9999116659164429,
        0.9997615218162537,
        0.9999338984489441
      ],
      "min": [
        -0.9997796416282654,
        -0.9999725222587585,
        -0.9999212622642517
      ],
      "type": "VEC3"
    },
    {
      "bufferView": 1,
      "componentType": 5126,
      "count": 350,
      "max": [
        0.9857633113861084,
        0.9847867488861084
      ],
      "min": [
        0.017120622098445892,
        0.0161287784576416
      ],
      "type": "VEC2"
    },
    {
      "bufferView": 0,
      "componentType": 5125,
      "count": 1296,
      "type": "SCALAR"
    },
    {
      "bufferView": 2,
      "byteOffset": 8400,
      "componentType": 5126,
      "count": 2903,
      "max": [
        0.13985514640808105,
        0.08615659922361374,
        0.5698522925376892
      ],
      "min": [
        -0.12478920817375183,
        -0.10558393597602844,
        0.07696846127510071
      ],
      "type": "VEC3"
    },
    {
      "bufferView": 2,
      "byteOffset": 43236,
      "componentType": 5126,
      "count": 2903,
      "max": [
        0.9998471140861511,
        0.9994903206825256,
        0.9998748898506165
      ],
      "min": [
        -0.9995713829994202,
        -0.9998413324356079,
        -0.9984024167060852
      ],
      "type": "VEC3"
    },
    {
      "bufferView": 1,
      "byteOffset": 2800,
      "componentType": 5126,
      "count": 2903,
      "max": [
        0.9969024062156677,
        0.9945067763328552
      ],
      "min": [
        0.006454566493630409,
        0.004058897495269775
      ],
      "type": "VEC2"
    },
    {
      "bufferView": 0,
      "byteOffset": 5184,
      "componentType": 5125,
      "count": 10824,
      "type": "SCALAR"
    },
    {
      "bufferView": 2,
      "byteOffset": 78072,
      "componentType": 5126,
      "count": 698,
      "max": [
        0.03697436302900314,
        0.03576174005866051,
        0.8677622079849243
      ],
      "min": [
        -0.04044414311647415,
        -0.056080181151628494,
        0.7621397972106934
      ],
      "type": "VEC3"
    },
    {
      "bufferView": 2,
      "byteOffset": 86448,
      "componentType": 5126,
      "count": 698,
      "max": [
        0.9959218502044678,
        0.9991949200630188,
        0.9958011507987976
      ],
      "min": [
        -0.9977439641952515,
        -0.9996544718742371,
        -0.9995717406272888
      ],
      "type": "VEC3"
    },
    {
      "bufferView": 1,
      "byteOffset": 26024,
      "componentType": 5126,
      "count": 698,
      "max": [
        0.9921873807907104,
        0.9897611737251282
      ],
      "min": [
        0.008087282069027424,
        0.007705807685852051
      ],
      "type": "VEC2"
    },
    {
      "bufferView": 0,
      "byteOffset": 48480,
      "componentType": 5125,
      "count": 3774,
      "type": "SCALAR"
    },
    {
      "bufferView": 2,
      "byteOffset": 94824,
      "componentType": 5126,
      "count": 192,
      "max": [
        0.0372103750705719,
        0.0654563158750534,
        0.8791401386260986
      ],
      "min": [
        -0.04027586430311203,
        -0.05585778132081032,
        0.792221188545227
      ],
      "type": "VEC3"
    },
    {
      "bufferView": 2,
      "byteOffset": 97128,
      "componentType": 5126,
      "count": 192,
      "max": [
        0.9827848672866821,
        0.9673722982406616,
        0.9920809864997864
      ],
      "min": [
        -0.9839559197425842,
        -0.998634397983551,
        -0.9934080243110657
      ],
      "type": "VEC3"
    },
    {
      "bufferView": 1,
      "byteOffset": 31608,
      "componentType": 5126,
      "count": 192,
      "max": [
        0.9832456111907959,
        0.9893339276313782
      ],
      "min": [
        0.010666056536138058,
        0.0157778263092041
      ],
      "type": "VEC2"
    },
    {
      "bufferView": 0,
      "byteOffset": 63576,
      "componentType": 5125,
      "count": 576,
      "type": "SCALAR"
    },
    {
      "bufferView": 2,
      "byteOffset": 99432,
      "componentType": 5126,
      "count": 1296,
      "max": [
        0.11862197518348694,
        0.05657992139458656,
        0.7826111912727356
      ],
      "min": [
        -0.15222951769828796,
        -0.10769687592983246,
        0.004406499210745096
      ],
      "type": "VEC3"
    },
    {
      "bufferView": 2,
      "byteOffset": 114984,
      "componentType": 5126,
      "count": 1296,
      "max": [
        0.9998741745948792,
        0.9996381998062134,
        0.9492025375366211
      ],
      "min": [
        -0.9997835755348206,
        -0.9995958805084229,
        -0.9889929294586182
      ],
      "type": "VEC3"
    },
    {
      "bufferView": 1,
      "byteOffset": 33144,
      "componentType": 5126,
      "count": 1296,
      "max": [
        0.991134524345398,
        0.9847714900970459
      ],
      "min": [
        0.02200350910425186,
        0.017624199390411377
      ],
      "type": "VEC2"
    },
    {
      "bufferView": 0,
      "byteOffset": 65880,
      "componentType": 5125,
      "count": 5514,
      "type": "SCALAR"
    },
    {
      "bufferView": 2,
      "byteOffset": 130536,
      "componentType": 5126,
      "count": 2223,
      "max": [
        0.1579453945159912,
        0.09160269051790237,
        0.775490939617157
      ],
      "min": [
        -0.1940557360649109,
        -0.08750952035188675,
        0.40534886717796326
      ],
      "type": "VEC3"
    },
    {
      "bufferView": 2,
      "byteOffset": 157212,
      "componentType": 5126,
      "count": 2223,
      "max": [
        0.9993674159049988,
        0.9999364018440247,
        0.9994721412658691
      ],
      "min": [
        -0.999366283416748,
        -0.9996853470802307,
        -0.9998189806938171
      ],
      "type": "VEC3"
    },
    {
      "bufferView": 1,
      "byteOffset": 43512,
      "componentType": 5126,
      "count": 2223,
      "max": [
        0.9950103163719177,
        0.9954223036766052
      ],
      "min": [
        0.006515602581202984,
        0.006927609443664551
      ],
      "type": "VEC2"
    },
    {
      "bufferView": 0,
      "byteOffset": 87936,
      "componentType": 5125,
      "count": 9471,
      "type": "SCALAR"
    },
    {
      "bufferView": 2,
      "byteOffset": 183888,
      "componentType": 5126,
      "count": 2391,
      "max": [
        0.048559922724962234,
        0.12605330348014832,
        0.895476222038269
      ],
      "min": [
        -0.04497794061899185,
        -0.056574832648038864,
        0.6467063426971436
      ],
      "type": "VEC3"
    },
    {
      "bufferView": 2,
      "byteOffset": 212580,
      "componentType": 5126,
      "count": 2391,
      "max": [
        0.9993219971656799,
        0.999050498008728,
        0.999824047088623
      ],
      "min": [
        -0.9999256730079651,
        -0.9980227947235107,
        -0.9896017909049988
      ],
      "type": "VEC3"
    },
    {
      "bufferView": 1,
      "byteOffset": 61296,
      "componentType": 5126,
      "count": 2391,
      "max": [
        0.991989016532898,
        0.9961242079734802
      ],
      "min": [
        0.05535973235964775,
        0.0021820664405822754
      ],
      "type": "VEC2"
    },
    {
      "bufferView": 0,
      "byteOffset": 125820,
      "componentType": 5125,
      "count": 7083,
      "type": "SCALAR"
    }
  ],
  "asset": {
    "extras": {
      "author": "BrOkiE FF (https://sketchfab.com/mafujarrahaman123)",
      "license": "CC-BY-4.0 (http://creativecommons.org/licenses/by/4.0/)",
      "source": "https://sketchfab.com/3d-models/swordmaven-bundle--free-fire-bb5d7cb890794458b569ec29b1d7f4ff",
      "title": "Swordmaven Bundle_ Free Fire"
    },
    "generator": "Sketchfab-15.37.0",
    "version": "2.0"
  },
  "bufferViews": [
    {
      "buffer": 0,
      "byteLength": 154152,
      "name": "floatBufferViews",
      "target": 34963
    },
    {
      "buffer": 0,
      "byteLength": 80424,
      "byteOffset": 154152,
      "byteStride": 8,
      "name": "floatBufferViews",
      "target": 34962
    },
    {
      "buffer": 0,
      "byteLength": 241272,
      "byteOffset": 234576,
      "byteStride": 12,
      "name": "floatBufferViews",
      "target": 34962
    }
  ],
  "buffers": [
    {
      "byteLength": 475848,
      "uri": "scene.bin"
    }
  ],
  "extensionsUsed": [
    "KHR_materials_specular"
  ],
  "images": [
    {
      "uri": "textures/mat0.010_baseColor.png"
    },
    {
      "uri": "textures/mat0.010_metallicRoughness.png"
    },
    {
      "uri": "textures/mat0.011_baseColor.png"
    },
    {
      "uri": "textures/mat0.116_baseColor.png"
    },
    {
      "uri": "textures/mat0.119_baseColor.png"
    },
    {
      "uri": "textures/mat0.120_baseColor.png"
    },
    {
      "uri": "textures/mat0.121_baseColor.png"
    },
    {
      "uri": "textures/mat0.129_baseColor.png"
    }
  ],
  "materials": [
    {
      "doubleSided": true,
      "extensions": {
        "KHR_materials_specular": {
          "specularColorFactor": [
            1.0,
            1.0,
            1.0
          ],
          "specularFactor": 0.10819080591483707
        }
      },
      "name": "mat0.010",
      "pbrMetallicRoughness": {
        "baseColorTexture": {
          "index": 0
        },
        "metallicFactor": 0.5043824895466348,
        "metallicRoughnessTexture": {
          "index": 1
        }
      }
    },
    {
      "doubleSided": true,
      "extensions": {
        "KHR_materials_specular": {
          "specularColorFactor": [
            1.0,
            1.0,
            1.0
          ],
          "specularFactor": 0.10819080591483707
        }
      },
      "name": "mat0.011",
      "pbrMetallicRoughness": {
        "baseColorTexture": {
          "index": 2
        },
        "metallicFactor": 0.5165730028891516,
        "roughnessFactor": 0.48342699711084836
      }
    },
    {
      "doubleSided": true,
      "extensions": {
        "KHR_materials_specular": {
          "specularColorFactor": [
            1.0,
            1.0,
            1.0
          ],
          "specularFactor": 0.1630481159561629
        }
      },
      "name": "mat0.116",
      "pbrMetallicRoughness": {
        "baseColorTexture": {
          "index": 3
        },
        "metallicFactor": 0.46171569284782576,
        "roughnessFactor": 0.5382843071521742
      }
    },
    {
      "doubleSided": true,
      "extensions": {
        "KHR_materials_specular": {
          "specularColorFactor": [
            1.0,
            1.0,
            1.0
          ],
          "specularFactor": 0.1630481159561629
        }
      },
      "name": "mat0.119",
      "pbrMetallicRoughness": {
        "baseColorTexture": {
          "index": 4
        },
        "metallicFactor": 0.5226682595604101,
        "roughnessFactor": 0.5078080237958821
      }
    },
    {
      "doubleSided": true,
      "extensions": {
        "KHR_materials_specular": {
          "specularColorFactor": [
            1.0,
            1.0,
            1.0
          ],
          "specularFactor": 0.09600029257232022
        }
      },
      "name": "mat0.120",
      "pbrMetallicRoughness": {
        "baseColorTexture": {
          "index": 5
        },
        "metallicFactor": 0.40685838280649994,
        "roughnessFactor": 0.5139032804671405
      }
    },
    {
      "doubleSided": true,
      "extensions": {
        "KHR_materials_specular": {
          "specularColorFactor": [
            1.0,
            1.0,
            1.0
          ],
          "specularFactor": 0.09600029257232022
        }
      },
      "name": "mat0.121",
      "pbrMetallicRoughness": {
        "baseColorTexture": {
          "index": 6
        },
        "metallicFactor": 0.565335056259219,
        "roughnessFactor": 0.4712364837683315
      }
    },
    {
      "doubleSided": true,
      "extensions": {
        "KHR_materials_specular": {
          "specularColorFactor": [
            1.0,
            1.0,
            1.0
          ],
          "specularFactor": 0.15085760261364606
        }
      },
      "name": "mat0.129",
      "pbrMetallicRoughness": {
        "baseColorTexture": {
          "index": 7
        },
        "metallicFactor": 0.49828723287537635,
        "roughnessFactor": 0.6053321305360169
      }
    }
  ],
  "meshes": [
    {
      "name": "Mesh_0010.rip_mat0.010_0",
      "primitives": [
        {
          "attributes": {
            "NORMAL": 1,
            "POSITION": 0,
            "TEXCOORD_0": 2
          },
          "indices": 3,
          "material": 0,
          "mode": 4
        }
      ]
    },
    {
      "name": "Mesh_0011.rip_mat0.011_0",
      "primitives": [
        {
          "attributes": {
            "NORMAL": 5,
            "POSITION": 4,
            "TEXCOORD_0": 6
          },
          "indices": 7,
          "material": 1,
          "mode": 4
        }
      ]
    },
    {
      "name": "Mesh_0116.rip_mat0.116_0",
      "primitives": [
        {
          "attributes": {
            "NORMAL": 9,
            "POSITION": 8,
            "TEXCOORD_0": 10
          },
          "indices": 11,
          "material": 2,
          "mode": 4
        }
      ]
    },
    {
      "name": "Mesh_0119.rip_mat0.119_0",
      "primitives": [
        {
          "attributes": {
            "NORMAL": 13,
            "POSITION": 12,
            "TEXCOORD_0": 14
          },
          "indices": 15,
          "material": 3,
          "mode": 4
        }
      ]
    },
    {
      "name": "Mesh_0120.rip_mat0.120_0",
      "primitives": [
        {
          "attributes": {
            "NORMAL": 17,
            "POSITION": 16,
            "TEXCOORD_0": 18
          },
          "indices": 19,
          "material": 4,
          "mode": 4
        }
      ]
    },
    {
      "name": "Mesh_0121.rip_mat0.121_0",
      "primitives": [
        {
          "attributes": {
            "NORMAL": 21,
            "POSITION": 20,
            "TEXCOORD_0": 22
          },
          "indices": 23,
          "material": 5,
          "mode": 4
        }
      ]
    },
    {
      "name": "Mesh_0129.rip_mat0.129_0",
      "primitives": [
        {
          "attributes": {
            "NORMAL": 25,
            "POSITION": 24,
            "TEXCOORD_0": 26
          },
          "indices": 27,
          "material": 6,
          "mode": 4
        }
      ]
    }
  ],
  "nodes": [
    {
      "children": [
        1
      ],
      "matrix": [
        1.0,
        0.0,
        0.0,
        0.0,
        0.0,
        2.220446049250313e-16,
        -1.0,
        0.0,
        0.0,
        1.0,
        2.220446049250313e-16,
        0.0,
        0.0,
        0.0,
        0.0,
        1.0
      ],
      "name": "Sketchfab_model"
    },
    {
      "children": [
        2
      ],
      "matrix": [
        0.009999999776482582,
        0.0,
        0.0,
        0.0,
        0.0,
        0.0,
        0.009999999776482582,
        0.0,
        0.0,
        -0.009999999776482582,
        0.0,
        0.0,
        0.0,
        0.0,
        0.0,
        1.0
      ],
      "name": "bf3e4c5e475244db93594c10a2cd0bab.fbx"
    },
    {
      "children": [
        3,
        5,
        7,
        9,
        11,
        13,
        15
      ],
      "name": "RootNode"
    },
    {
      "children": [
        4
      ],
      "matrix": [
        99.07500215452563,
        -1.4292033409922653e-07,
        13.569908702784021,
        0.0,
        13.569908702783794,
        1.945114216731224e-05,
        -99.07500215452376,
        0.0,
        -2.497904290355013e-06,
        99.99999999999811,
        1.9290616626310708e-05,
        0.0,
        0.0,
        0.0,
        0.0,
        1.0
      ],
      "name": "Mesh_0010.rip"
    },
    {
      "mesh": 0,
      "name": "Mesh_0010.rip_mat0.010_0"
    },
    {
      "children": [
        6
      ],
      "matrix": [
        99.07500215452563,
        -1.4292033409922653e-07,
        13.569908702784021,
        0.0,
        13.569908702783794,
        1.945114216731224e-05,
        -99.07500215452376,
        0.0,
        -2.497904290355013e-06,
        99.99999999999811,
        1.9290616626310708e-05,
        0.0,
        0.0,
        0.0,
        0.0,
        1.0
      ],
      "name": "Mesh_0011.rip"
    },
    {
      "mesh": 1,
      "name": "Mesh_0011.rip_mat0.011_0"
    },
    {
      "children": [
        8
      ],
      "matrix": [
        99.07500215452563,
        -1.4292033409922653e-07,
        13.569908702784021,
        0.0,
        13.569908702783794,
        1.945114216731224e-05,
        -99.07500215452376,
        0.0,
        -2.497904290355013e-06,
        99.99999999999811,
        1.9290616626310708e-05,
        0.0,
        0.0,
        0.0,
        0.0,
        1.0
      ],
      "name": "Mesh_0116.rip"
    },
    {
      "mesh": 2,
      "name": "Mesh_0116.rip_mat0.116_0"
    },
    {
      "children": [
        10
      ],
      "matrix": [
        99.07500215452563,
        -1.4292033409922653e-07,
        13.569908702784021,
        0.0,
        13.569908702783794,
        1.945114216731224e-05,
        -99.07500215452376,
        0.0,
        -2.497904290355013e-06,
        99.99999999999811,
        1.9290616626310708e-05,
        0.0,
        0.0,
        0.0,
        0.0,
        1.0
      ],
      "name": "Mesh_0119.rip"
    },
    {
      "mesh": 3,
      "name": "Mesh_0119.rip_mat0.119_0"
    },
    {
      "children": [
        12
      ],
      "matrix": [
        99.07500215452563,
        -1.4292033409922653e-07,
        13.569908702784021,
        0.0,
        13.569908702783794,
        1.945114216731224e-05,
        -99.07500215452376,
        0.0,
        -2.497904290355013e-06,
        99.99999999999811,
        1.9290616626310708e-05,
        0.0,
        0.0,
        0.0,
        0.0,
        1.0
      ],
      "name": "Mesh_0120.rip"
    },
    {
      "mesh": 4,
      "name": "Mesh_0120.rip_mat0.120_0"
    },
    {
      "children": [
        14
      ],
      "matrix": [
        99.07500215452563,
        -1.4292033409922653e-07,
        13.569908702784021,
        0.0,
        13.569908702783794,
        1.945114216731224e-05,
        -99.07500215452376,
        0.0,
        -2.497904290355013e-06,
        99.99999999999811,
        1.9290616626310708e-05,
        0.0,
        0.0,
        0.0,
        0.0,
        1.0
      ],
      "name": "Mesh_0121.rip"
    },
    {
      "mesh": 5,
      "name": "Mesh_0121.rip_mat0.121_0"
    },
    {
      "children": [
        16
      ],
      "matrix": [
        99.07500215452563,
        -1.4292033409922653e-07,
        13.569908702784021,
        0.0,
        13.569908702783794,
        1.945114216731224e-05,
        -99.07500215452376,
        0.0,
        -2.497904290355013e-06,
        99.99999999999811,
        1.9290616626310708e-05,
        0.0,
        0.0,
        0.0,
        0.0,
        1.0
      ],
      "name": "Mesh_0129.rip"
    },
    {
      "mesh": 6,
      "name": "Mesh_0129.rip_mat0.129_0"
    }
  ],
  "samplers": [
    {
      "magFilter": 9729,
      "minFilter": 9987,
      "wrapS": 10497,
      "wrapT": 10497
    }
  ],
  "scene": 0,
  "scenes": [
    {
      "name": "Sketchfab_Scene",
      "nodes": [
        0
      ]
    }
  ],
  "textures": [
    {
      "sampler": 0,
      "source": 0
    },
    {
      "sampler": 0,
      "source": 1
    },
    {
      "sampler": 0,
      "source": 2
    },
    {
      "sampler": 0,
      "source": 3
    },
    {
      "sampler": 0,
      "source": 4
    },
    {
      "sampler": 0,
      "source": 5
    },
    {
      "sampler": 0,
      "source": 6
    },
    {
      "sampler": 0,
      "source": 7
    }
  ]
}
