{
  "accessors": [
    {
      "bufferView": 2,
      "componentType": 5126,
      "count": 24,
      "max": [
        1.0,
        1.0,
        1.0
      ],
      "min": [
        -1.0,
        -1.0,
        -1.0
      ],
      "type": "VEC3"
    },
    {
      "bufferView": 2,
      "byteOffset": 288,
      "componentType": 5126,
      "count": 24,
      "max": [
        1.0,
        1.0,
        1.0
      ],
      "min": [
        -1.0,
        -1.0,
        -1.0
      ],
      "type": "VEC3"
    },
    {
      "bufferView": 1,
      "componentType": 5126,
      "count": 24,
      "max": [
        0.875,
        1.0
      ],
      "min": [
        0.125,
        0.0
      ],
      "type": "VEC2"
    },
    {
      "bufferView": 0,
      "componentType": 5125,
      "count": 36,
      "type": "SCALAR"
    },
    {
      "bufferView": 2,
      "byteOffset": 576,
      "componentType": 5126,
      "count": 1734,
      "max": [
        1.0,
        1.0,
        1.0
      ],
      "min": [
        -1.0,
        -1.0,
        -1.0
      ],
      "type": "VEC3"
    },
    {
      "bufferView": 2,
      "byteOffset": 21384,
      "componentType": 5126,
      "count": 1734,
      "max": [
        1.0,
        1.0,
        1.0
      ],
      "min": [
        -1.0,
        -1.0,
        -1.0
      ],
      "type": "VEC3"
    },
    {
      "bufferView": 1,
      "byteOffset": 192,
      "componentType": 5126,
      "count": 1734,
      "max": [
        0.875,
        1.0
      ],
      "min": [
        0.125,
        0.0
      ],
      "type": "VEC2"
    },
    {
      "bufferView": 0,
      "byteOffset": 144,
      "componentType": 5125,
      "count": 9216,
      "type": "SCALAR"
    },
    {
      "bufferView": 2,
      "byteOffset": 42192,
      "componentType": 5126,
      "count": 1085,
      "max": [
        0.9999999403953552,
        1.0029854774475098,
        1.0
      ],
      "min": [
        -1.0241636037826538,
        -1.0029854774475098,
        -0.9999998807907104
      ],
      "type": "VEC3"
    },
    {
      "bufferView": 2,
      "byteOffset": 55212,
      "componentType": 5126,
      "count": 1085,
      "max": [
        1.0,
        1.0,
        0.9727295637130737
      ],
      "min": [
        -1.0,
        -1.0,
        -0.7071068286895752
      ],
      "type": "VEC3"
    },
    {
      "bufferView": 1,
      "byteOffset": 14064,
      "componentType": 5126,
      "count": 1085,
      "max": [
        1.0,
        1.0
      ],
      "min": [
        0.0,
        0.01000000536441803
      ],
      "type": "VEC2"
    },
    {
      "bufferView": 0,
      "byteOffset": 37008,
      "componentType": 5125,
      "count": 5298,
      "type": "SCALAR"
    },
    {
      "bufferView": 2,
      "byteOffset": 68232,
      "componentType": 5126,
      "count": 24,
      "max": [
        1.4291322231292725,
        1.1051762104034424,
        1.0844571590423584
      ],
      "min": [
        -1.4291322231292725,
        -1.1051762104034424,
        -1.6961175203323364
      ],
      "type": "VEC3"
    },
    {
      "bufferView": 2,
      "byteOffset": 68520,
      "componentType": 5126,
      "count": 24,
      "max": [
        0.9417916536331177,
        0.9888355731964111,
        1.0
      ],
      "min": [
        -0.9417916536331177,
        -0.9888355731964111,
        -1.0
      ],
      "type": "VEC3"
    },
    {
      "bufferView": 1,
      "byteOffset": 22744,
      "componentType": 5126,
      "count": 24,
      "max": [
        0.875,
        1.0
      ],
      "min": [
        0.125,
        0.0
      ],
      "type": "VEC2"
    },
    {
      "bufferView": 0,
      "byteOffset": 58200,
      "componentType": 5125,
      "count": 36,
      "type": "SCALAR"
    },
    {
      "bufferView": 2,
      "byteOffset": 68808,
      "componentType": 5126,
      "count": 108,
      "max": [
        0.9999999403953552,
        1.0,
        0.9707980155944824
      ],
      "min": [
        -1.0721275806427002,
        -0.131622314453125,
        -3.794074058532715
      ],
      "type": "VEC3"
    },
    {
      "bufferView": 2,
      "byteOffset": 70104,
      "componentType": 5126,
      "count": 108,
      "max": [
        1.0,
        0.9999146461486816,
        0.8420111536979675
      ],
      "min": [
        -1.0,
        -0.9999146461486816,
        -1.0
      ],
      "type": "VEC3"
    },
    {
      "bufferView": 1,
      "byteOffset": 22936,
      "componentType": 5126,
      "count": 108,
      "max": [
        0.875,
        1.0
      ],
      "min": [
        0.125,
        0.03125
      ],
      "type": "VEC2"
    },
    {
      "bufferView": 0,
      "byteOffset": 58344,
      "componentType": 5125,
      "count": 174,
      "type": "SCALAR"
    },
    {
      "bufferView": 2,
      "byteOffset": 71400,
      "componentType": 5126,
      "count": 24,
      "max": [
        1.0,
        1.0,
        1.0
      ],
      "min": [
        -1.0,
        -1.0,
        -1.0
      ],
      "type": "VEC3"
    },
    {
      "bufferView": 2,
      "byteOffset": 71688,
      "componentType": 5126,
      "count": 24,
      "max": [
        1.0,
        1.0,
        1.0
      ],
      "min": [
        -1.0,
        -1.0,
        -1.0
      ],
      "type": "VEC3"
    },
    {
      "bufferView": 1,
      "byteOffset": 23800,
      "componentType": 5126,
      "count": 24,
      "max": [
        0.875,
        1.0
      ],
      "min": [
        0.125,
        0.0
      ],
      "type": "VEC2"
    },
    {
      "bufferView": 0,
      "byteOffset": 59040,
      "componentType": 5125,
      "count": 36,
      "type": "SCALAR"
    }
  ],
  "asset": {
    "extras": {
      "author": "F1nNxHMHN (https://sketchfab.com/F1nNxHMHN)",
      "license": "CC-BY-4.0 (http://creativecommons.org/licenses/by/4.0/)",
      "source": "https://sketchfab.com/3d-models/street-lamb-e7a93f56504c40a3beec9109e507add1",
      "title": "Street Lamb"
    },
    "generator": "Sketchfab-14.41.0",
    "version": "2.0"
  },
  "bufferViews": [
    {
      "buffer": 0,
      "byteLength": 59184,
      "name": "floatBufferViews",
      "target": 34963
    },
    {
      "buffer": 0,
      "byteLength": 23992,
      "byteOffset": 59184,
      "byteStride": 8,
      "name": "floatBufferViews",
      "target": 34962
    },
    {
      "buffer": 0,
      "byteLength": 71976,
      "byteOffset": 83176,
      "byteStride": 12,
      "name": "floatBufferViews",
      "target": 34962
    }
  ],
  "buffers": [
    {
      "byteLength": 155152,
      "uri": "scene.bin"
    }
  ],
  "materials": [
    {
      "doubleSided": true,
      "name": "Material.001",
      "pbrMetallicRoughness": {
        "baseColorFactor": [
          0.0,
          0.0,
          0.0,
          1.0
        ],
        "metallicFactor": 0.0
      }
    },
    {
      "doubleSided": true,
      "name": "Material.002",
      "pbrMetallicRoughness": {
        "baseColorFactor": [
          0.0,
          0.0,
          0.0,
          1.0
        ],
        "metallicFactor": 0.0
      }
    },
    {
      "doubleSided": true,
      "name": "Material.005",
      "pbrMetallicRoughness": {
        "metallicFactor": 0.0,
        "roughnessFactor": 0.7496669062999903
      }
    },
    {
      "doubleSided": true,
      "name": "Material.006",
      "pbrMetallicRoughness": {
        "baseColorFactor": [
          0.0374096,
          0.0374096,
          0.0374096,
          1.0
        ],
        "metallicFactor": 0.0,
        "roughnessFactor": 0.9890020494778335
      }
    },
    {
      "doubleSided": true,
      "name": "Material.007",
      "pbrMetallicRoughness": {
        "baseColorFactor": [
          0.0637199,
          0.0637199,
          0.0637199,
          1.0
        ],
        "metallicFactor": 0.0,
        "roughnessFactor": 0.9818970080836282
      }
    },
    {
      "doubleSided": true,
      "emissiveFactor": [
        1.0,
        1.0,
        1.0
      ],
      "name": "Material.009",
      "pbrMetallicRoughness": {
        "baseColorFactor": [
          0.8,
          0.8,
          0.8,
          1.0
        ],
        "metallicFactor": 0.0,
        "roughnessFactor": 0.7470177871865296
      }
    }
  ],
  "meshes": [
    {
      "name": "Cube_Material.001_0",
      "primitives": [
        {
          "attributes": {
            "NORMAL": 1,
            "POSITION": 0,
            "TEXCOORD_0": 2
          },
          "indices": 3,
          "material": 0,
          "mode": 4
        }
      ]
    },
    {
      "name": "Cube.001_Material.002_0",
      "primitives": [
        {
          "attributes": {
            "NORMAL": 5,
            "POSITION": 4,
            "TEXCOORD_0": 6
          },
          "indices": 7,
          "material": 1,
          "mode": 4
        }
      ]
    },
    {
      "name": "Cylinder_Material.005_0",
      "primitives": [
        {
          "attributes": {
            "NORMAL": 9,
            "POSITION": 8,
            "TEXCOORD_0": 10
          },
          "indices": 11,
          "material": 2,
          "mode": 4
        }
      ]
    },
    {
      "name": "Cube.003_Material.006_0",
      "primitives": [
        {
          "attributes": {
            "NORMAL": 13,
            "POSITION": 12,
            "TEXCOORD_0": 14
          },
          "indices": 15,
          "material": 3,
          "mode": 4
        }
      ]
    },
    {
      "name": "Cube.002_Material.007_0",
      "primitives": [
        {
          "attributes": {
            "NORMAL": 17,
            "POSITION": 16,
            "TEXCOORD_0": 18
          },
          "indices": 19,
          "material": 4,
          "mode": 4
        }
      ]
    },
    {
      "name": "Cube.004_Material.009_0",
      "primitives": [
        {
          "attributes": {
            "NORMAL": 21,
            "POSITION": 20,
            "TEXCOORD_0": 22
          },
          "indices": 23,
          "material": 5,
          "mode": 4
        }
      ]
    }
  ],
  "nodes": [
    {
      "children": [
        1
      ],
      "matrix": [
        1.0,
        0.0,
        0.0,
        0.0,
        0.0,
        2.220446049250313e-16,
        -1.0,
        0.0,
        0.0,
        1.0,
        2.220446049250313e-16,
        0.0,
        0.0,
        0.0,
        0.0,
        1.0
      ],
      "name": "Sketchfab_model"
    },
    {
      "children": [
        2
      ],
      "matrix": [
        0.009999999776482582,
        0.0,
        0.0,
        0.0,
        0.0,
        0.0,
        0.009999999776482582,
        0.0,
        0.0,
        -0.009999999776482582,
        0.0,
        0.0,
        0.0,
        0.0,
        0.0,
        1.0
      ],
      "name": "lamp 1 by 1.fbx"
    },
    {
      "children": [
        3,
        5,
        7,
        9,
        11,
        13
      ],
      "name": "RootNode"
    },
    {
      "children": [
        4
      ],
      "matrix": [
        21.27958869934082,
        0.0,
        0.0,
        0.0,
        0.0,
        -3.4668850480753446e-06,
        -21.27958869934054,
        0.0,
        0.0,
        1.4186393022537045,
        -2.3112567893513025e-07,
        0.0,
        1.1384961373715578e-15,
        3.872669219970703,
        0.28485172986984253,
        1.0
      ],
      "name": "Cube"
    },
    {
      "mesh": 0,
      "name": "Cube_Material.001_0"
    },
    {
      "children": [
        6
      ],
      "matrix": [
        6.828303813934326,
        0.0,
        0.0,
        0.0,
        0.0,
        -1.112471896460014e-06,
        -6.828303813934236,
        0.0,
        0.0,
        8.78634643554676,
        -1.4314775306512932e-06,
        0.0,
        0.0,
        14.0,
        0.0,
        1.0
      ],
      "name": "Cube.001"
    },
    {
      "mesh": 1,
      "name": "Cube.001_Material.002_0"
    },
    {
      "children": [
        8
      ],
      "matrix": [
        3.0,
        0.0,
        0.0,
        0.0,
        0.0,
        -4.887620381754942e-07,
        -2.9999999999999605,
        0.0,
        0.0,
        94.99999999999875,
        -1.5477464542223984e-05,
        0.0,
        0.0,
        110.0,
        0.0,
        1.0
      ],
      "name": "Cylinder"
    },
    {
      "mesh": 2,
      "name": "Cylinder_Material.005_0"
    },
    {
      "children": [
        10
      ],
      "matrix": [
        9.575268745422363,
        0.0,
        0.0,
        0.0,
        0.0,
        -1.174884794227387e-06,
        -7.211391448974514,
        0.0,
        0.0,
        3.665577173232984,
        -5.971983234263146e-07,
        0.0,
        0.0,
        204.17396545410156,
        0.0,
        1.0
      ],
      "name": "Cube.003"
    },
    {
      "mesh": 3,
      "name": "Cube.003_Material.006_0"
    },
    {
      "children": [
        12
      ],
      "matrix": [
        7.857230186462402,
        0.0,
        0.0,
        0.0,
        0.0,
        -6.4719702918392385e-06,
        -39.724670410155724,
        0.0,
        0.0,
        2.8970396518706893,
        -4.719876683078537e-07,
        0.0,
        0.0,
        211.03726196289063,
        31.0,
        1.0
      ],
      "name": "Cube.002"
    },
    {
      "mesh": 4,
      "name": "Cube.002_Material.007_0"
    },
    {
      "children": [
        14
      ],
      "matrix": [
        5.170438289642334,
        0.0,
        0.0,
        0.0,
        0.0,
        0.3590558826186124,
        10.823608272636113,
        0.0,
        0.0,
        -0.8291057501642028,
        0.027504256382042014,
        0.0,
        0.0,
        207.4728546142578,
        16.0,
        1.0
      ],
      "name": "Cube.004"
    },
    {
      "mesh": 5,
      "name": "Cube.004_Material.009_0"
    }
  ],
  "scene": 0,
  "scenes": [
    {
      "name": "Sketchfab_Scene",
      "nodes": [
        0
      ]
    }
  ]
}
