{
  "accessors": [
    {
      "bufferView": 2,
      "componentType": 5126,
      "count": 1347,
      "max": [
        1.9447400569915771,
        8.256319999694824,
        6.0056538581848145
      ],
      "min": [
        -1.9447400569915771,
        -0.04938599839806557,
        -7.655995845794678
      ],
      "type": "VEC3"
    },
    {
      "bufferView": 2,
      "byteOffset": 16164,
      "componentType": 5126,
      "count": 1347,
      "max": [
        0.9999823570251465,
        0.9999825358390808,
        0.9991815090179443
      ],
      "min": [
        -0.9999823570251465,
        -0.9999745488166809,
        -0.9998237490653992
      ],
      "type": "VEC3"
    },
    {
      "bufferView": 1,
      "componentType": 5126,
      "count": 1347,
      "max": [
        0.9884560108184814,
        0.9072980880737305
      ],
      "min": [
        0.011544018983840942,
        0.01059684157371521
      ],
      "type": "VEC2"
    },
    {
      "bufferView": 0,
      "componentType": 5125,
      "count": 6768,
      "type": "SCALAR"
    },
    {
      "bufferView": 2,
      "byteOffset": 32328,
      "componentType": 5126,
      "count": 431,
      "max": [
        1.9167100191116333,
        8.188703536987305,
        6.424251079559326
      ],
      "min": [
        -1.9167100191116333,
        -0.0800279974937439,
        -8.264630317687988
      ],
      "type": "VEC3"
    },
    {
      "bufferView": 2,
      "byteOffset": 37500,
      "componentType": 5126,
      "count": 431,
      "max": [
        0.9964606165885925,
        0.9973277449607849,
        0.9995022416114807
      ],
      "min": [
        -0.9964607357978821,
        -1.0,
        -1.0
      ],
      "type": "VEC3"
    },
    {
      "bufferView": 1,
      "byteOffset": 10776,
      "componentType": 5126,
      "count": 431,
      "max": [
        0.8740220665931702,
        0.7186384201049805
      ],
      "min": [
        0.029759949073195457,
        0.01059618778526783
      ],
      "type": "VEC2"
    },
    {
      "bufferView": 0,
      "byteOffset": 27072,
      "componentType": 5125,
      "count": 1968,
      "type": "SCALAR"
    },
    {
      "bufferView": 2,
      "byteOffset": 42672,
      "componentType": 5126,
      "count": 42,
      "max": [
        0.13817599415779114,
        5.216532230377197,
        6.393712997436523
      ],
      "min": [
        -0.13817599415779114,
        5.055646896362305,
        6.245850086212158
      ],
      "type": "VEC3"
    },
    {
      "bufferView": 2,
      "byteOffset": 43176,
      "componentType": 5126,
      "count": 42,
      "max": [
        0.8194128274917603,
        0.9933516383171082,
        0.9763367772102356
      ],
      "min": [
        -0.8194099068641663,
        -0.9900673627853394,
        -0.9092586040496826
      ],
      "type": "VEC3"
    },
    {
      "bufferView": 1,
      "byteOffset": 14224,
      "componentType": 5126,
      "count": 42,
      "max": [
        0.03678325563669205,
        0.023355519399046898
      ],
      "min": [
        0.011544018052518368,
        0.010598770342767239
      ],
      "type": "VEC2"
    },
    {
      "bufferView": 0,
      "byteOffset": 34944,
      "componentType": 5125,
      "count": 240,
      "type": "SCALAR"
    },
    {
      "bufferView": 2,
      "byteOffset": 43680,
      "componentType": 5126,
      "count": 441,
      "max": [
        0.9325429797172546,
        5.340697765350342,
        3.605468988418579
      ],
      "min": [
        -0.9325429797172546,
        3.7900240421295166,
        2.381179094314575
      ],
      "type": "VEC3"
    },
    {
      "bufferView": 2,
      "byteOffset": 48972,
      "componentType": 5126,
      "count": 441,
      "max": [
        1.0,
        0.9975164532661438,
        0.9879606366157532
      ],
      "min": [
        -1.0,
        -0.9975159764289856,
        -0.9879609942436218
      ],
      "type": "VEC3"
    },
    {
      "bufferView": 1,
      "byteOffset": 14560,
      "componentType": 5126,
      "count": 441,
      "max": [
        0.9860278964042664,
        0.6031550168991089
      ],
      "min": [
        0.8811445236206055,
        0.49827173352241516
      ],
      "type": "VEC2"
    },
    {
      "bufferView": 0,
      "byteOffset": 35904,
      "componentType": 5125,
      "count": 2400,
      "type": "SCALAR"
    },
    {
      "bufferView": 2,
      "byteOffset": 54264,
      "componentType": 5126,
      "count": 285,
      "max": [
        1.3457776308059692,
        6.206959247589111,
        6.069098949432373
      ],
      "min": [
        0.3490407466888428,
        5.1634931564331055,
        5.453980922698975
      ],
      "type": "VEC3"
    },
    {
      "bufferView": 2,
      "byteOffset": 57684,
      "componentType": 5126,
      "count": 285,
      "max": [
        0.9995737075805664,
        0.9962692856788635,
        0.9979767203330994
      ],
      "min": [
        -0.9995737075805664,
        -0.9962697625160217,
        -0.9979769587516785
      ],
      "type": "VEC3"
    },
    {
      "bufferView": 1,
      "byteOffset": 18088,
      "componentType": 5126,
      "count": 285,
      "max": [
        1.0,
        0.9999999403953552
      ],
      "min": [
        -3.711511762922152e-16,
        8.940696716308594e-08
      ],
      "type": "VEC2"
    },
    {
      "bufferView": 0,
      "byteOffset": 45504,
      "componentType": 5125,
      "count": 1440,
      "type": "SCALAR"
    },
    {
      "bufferView": 2,
      "byteOffset": 61104,
      "componentType": 5126,
      "count": 285,
      "max": [
        -0.34904080629348755,
        6.206959247589111,
        6.069099426269531
      ],
      "min": [
        -1.3457776308059692,
        5.1634931564331055,
        5.453980922698975
      ],
      "type": "VEC3"
    },
    {
      "bufferView": 2,
      "byteOffset": 64524,
      "componentType": 5126,
      "count": 285,
      "max": [
        0.9995737075805664,
        0.9962698221206665,
        0.9979767203330994
      ],
      "min": [
        -0.9995736479759216,
        -0.9962695837020874,
        -0.9979770183563232
      ],
      "type": "VEC3"
    },
    {
      "bufferView": 1,
      "byteOffset": 20368,
      "componentType": 5126,
      "count": 285,
      "max": [
        1.0,
        0.9999999403953552
      ],
      "min": [
        -2.6192026325588813e-10,
        8.940696716308594e-08
      ],
      "type": "VEC2"
    },
    {
      "bufferView": 0,
      "byteOffset": 51264,
      "componentType": 5125,
      "count": 1440,
      "type": "SCALAR"
    }
  ],
  "asset": {
    "extras": {
      "author": "MrPuppet (https://sketchfab.com/MrPuppet)",
      "license": "CC-BY-4.0 (http://creativecommons.org/licenses/by/4.0/)",
      "source": "https://sketchfab.com/3d-models/cat-puppet-41edc7e5f4914897a059fea836301369",
      "title": "Cat Puppet"
    },
    "generator": "Sketchfab-15.38.0",
    "version": "2.0"
  },
  "bufferViews": [
    {
      "buffer": 0,
      "byteLength": 57024,
      "name": "floatBufferViews",
      "target": 34963
    },
    {
      "buffer": 0,
      "byteLength": 22648,
      "byteOffset": 57024,
      "byteStride": 8,
      "name": "floatBufferViews",
      "target": 34962
    },
    {
      "buffer": 0,
      "byteLength": 67944,
      "byteOffset": 79672,
      "byteStride": 12,
      "name": "floatBufferViews",
      "target": 34962
    }
  ],
  "buffers": [
    {
      "byteLength": 147616,
      "uri": "scene.bin"
    }
  ],
  "extensionsUsed": [
    "KHR_materials_specular"
  ],
  "materials": [
    {
      "doubleSided": true,
      "name": "lambert2",
      "pbrMetallicRoughness": {
        "baseColorFactor": [
          0.0866,
          0.0709,
          0.0628,
          1.0
        ],
        "metallicFactor": 0.0,
        "roughnessFactor": 0.6
      }
    },
    {
      "doubleSided": true,
      "name": "lambert3",
      "pbrMetallicRoughness": {
        "baseColorFactor": [
          0.602,
          0.492792,
          0.43645,
          1.0
        ],
        "metallicFactor": 0.0,
        "roughnessFactor": 0.6
      }
    },
    {
      "doubleSided": true,
      "name": "phong2",
      "pbrMetallicRoughness": {
        "baseColorFactor": [
          0.182,
          0.075894,
          0.075894,
          1.0
        ],
        "metallicFactor": 0.0,
        "roughnessFactor": 0.9899149907250482
      }
    },
    {
      "doubleSided": true,
      "name": "phong1",
      "pbrMetallicRoughness": {
        "baseColorFactor": [
          0.0,
          0.0,
          0.195,
          1.0
        ],
        "metallicFactor": 0.0,
        "roughnessFactor": 0.8942628736559436
      }
    },
    {
      "doubleSided": true,
      "extensions": {
        "KHR_materials_specular": {
          "specularColorFactor": [
            1.0,
            1.0,
            1.0
          ],
          "specularFactor": 0.46171569284782576
        }
      },
      "name": "phong3",
      "pbrMetallicRoughness": {
        "baseColorFactor": [
          0.0,
          0.0,
          0.0,
          1.0
        ],
        "metallicFactor": 0.0,
        "roughnessFactor": 0.8942628736559436
      }
    }
  ],
  "meshes": [
    {
      "name": "bodymesh_lambert2_0",
      "primitives": [
        {
          "attributes": {
            "NORMAL": 1,
            "POSITION": 0,
            "TEXCOORD_0": 2
          },
          "indices": 3,
          "material": 0,
          "mode": 4
        }
      ]
    },
    {
      "name": "bodymesh_lambert3_0",
      "primitives": [
        {
          "attributes": {
            "NORMAL": 5,
            "POSITION": 4,
            "TEXCOORD_0": 6
          },
          "indices": 7,
          "material": 1,
          "mode": 4
        }
      ]
    },
    {
      "name": "bodymesh_phong2_0",
      "primitives": [
        {
          "attributes": {
            "NORMAL": 9,
            "POSITION": 8,
            "TEXCOORD_0": 10
          },
          "indices": 11,
          "material": 2,
          "mode": 4
        }
      ]
    },
    {
      "name": "collar_phong1_0",
      "primitives": [
        {
          "attributes": {
            "NORMAL": 13,
            "POSITION": 12,
            "TEXCOORD_0": 14
          },
          "indices": 15,
          "material": 3,
          "mode": 4
        }
      ]
    },
    {
      "name": "Leye_phong3_0",
      "primitives": [
        {
          "attributes": {
            "NORMAL": 17,
            "POSITION": 16,
            "TEXCOORD_0": 18
          },
          "indices": 19,
          "material": 4,
          "mode": 4
        }
      ]
    },
    {
      "name": "Reye_phong3_0",
      "primitives": [
        {
          "attributes": {
            "NORMAL": 21,
            "POSITION": 20,
            "TEXCOORD_0": 22
          },
          "indices": 23,
          "material": 4,
          "mode": 4
        }
      ]
    }
  ],
  "nodes": [
    {
      "children": [
        1
      ],
      "matrix": [
        1.0,
        0.0,
        0.0,
        0.0,
        0.0,
        2.220446049250313e-16,
        -1.0,
        0.0,
        0.0,
        1.0,
        2.220446049250313e-16,
        0.0,
        0.0,
        0.0,
        0.0,
        1.0
      ],
      "name": "Sketchfab_model"
    },
    {
      "children": [
        2
      ],
      "matrix": [
        0.009999999776482582,
        0.0,
        0.0,
        0.0,
        0.0,
        0.0,
        0.009999999776482582,
        0.0,
        0.0,
        -0.009999999776482582,
        0.0,
        0.0,
        0.0,
        0.0,
        0.0,
        1.0
      ],
      "name": "ab26e370be24468495141f1ff5b0edcf.fbx"
    },
    {
      "children": [
        3
      ],
      "name": "RootNode"
    },
    {
      "children": [
        4,
        8,
        10,
        12
      ],
      "name": "geo"
    },
    {
      "children": [
        5,
        6,
        7
      ],
      "name": "bodymesh"
    },
    {
      "mesh": 0,
      "name": "bodymesh_lambert2_0"
    },
    {
      "mesh": 1,
      "name": "bodymesh_lambert3_0"
    },
    {
      "mesh": 2,
      "name": "bodymesh_phong2_0"
    },
    {
      "children": [
        9
      ],
      "name": "collar"
    },
    {
      "mesh": 3,
      "name": "collar_phong1_0"
    },
    {
      "children": [
        11
      ],
      "name": "Leye"
    },
    {
      "mesh": 4,
      "name": "Leye_phong3_0"
    },
    {
      "children": [
        13
      ],
      "name": "Reye"
    },
    {
      "mesh": 5,
      "name": "Reye_phong3_0"
    }
  ],
  "scene": 0,
  "scenes": [
    {
      "name": "Sketchfab_Scene",
      "nodes": [
        0
      ]
    }
  ]
}
